<mxfile host="app.diagrams.net" modified="2024-06-13T22:24:00.279Z" agent="Mozilla/5.0 (Windows NT 10.0; Win64; x64) AppleWebKit/537.36 (KHTML, like Gecko) Chrome/123.0.0.0 Safari/537.36 OPR/109.0.0.0" etag="yNCV_pVFqUPGjJiYMgB9" version="24.4.9" type="github">
  <diagram id="C5RBs43oDa-KdzZeNtuy" name="Page-1">
    <mxGraphModel dx="1180" dy="745" grid="1" gridSize="10" guides="1" tooltips="1" connect="1" arrows="1" fold="1" page="1" pageScale="1" pageWidth="827" pageHeight="1169" math="0" shadow="0">
      <root>
        <mxCell id="WIyWlLk6GJQsqaUBKTNV-0" />
        <mxCell id="WIyWlLk6GJQsqaUBKTNV-1" parent="WIyWlLk6GJQsqaUBKTNV-0" />
        <mxCell id="fCuV1WT7ZDhSKmMpdrwZ-5" value="" style="edgeStyle=orthogonalEdgeStyle;rounded=0;orthogonalLoop=1;jettySize=auto;html=1;" parent="WIyWlLk6GJQsqaUBKTNV-1" source="WIyWlLk6GJQsqaUBKTNV-3" target="fCuV1WT7ZDhSKmMpdrwZ-4" edge="1">
          <mxGeometry relative="1" as="geometry" />
        </mxCell>
        <mxCell id="WIyWlLk6GJQsqaUBKTNV-3" value="Generate a random word" style="rounded=1;whiteSpace=wrap;html=1;fontSize=12;glass=0;strokeWidth=1;shadow=0;" parent="WIyWlLk6GJQsqaUBKTNV-1" vertex="1">
          <mxGeometry x="354" y="140" width="120" height="40" as="geometry" />
        </mxCell>
        <mxCell id="fCuV1WT7ZDhSKmMpdrwZ-1" style="edgeStyle=orthogonalEdgeStyle;rounded=0;orthogonalLoop=1;jettySize=auto;html=1;" parent="WIyWlLk6GJQsqaUBKTNV-1" source="fCuV1WT7ZDhSKmMpdrwZ-0" target="WIyWlLk6GJQsqaUBKTNV-3" edge="1">
          <mxGeometry relative="1" as="geometry" />
        </mxCell>
        <mxCell id="fCuV1WT7ZDhSKmMpdrwZ-0" value="Start" style="ellipse;whiteSpace=wrap;html=1;" parent="WIyWlLk6GJQsqaUBKTNV-1" vertex="1">
          <mxGeometry x="354" y="10" width="120" height="80" as="geometry" />
        </mxCell>
        <mxCell id="fCuV1WT7ZDhSKmMpdrwZ-38" value="" style="edgeStyle=orthogonalEdgeStyle;rounded=0;orthogonalLoop=1;jettySize=auto;html=1;" parent="WIyWlLk6GJQsqaUBKTNV-1" source="fCuV1WT7ZDhSKmMpdrwZ-4" target="fCuV1WT7ZDhSKmMpdrwZ-37" edge="1">
          <mxGeometry relative="1" as="geometry" />
        </mxCell>
        <mxCell id="fCuV1WT7ZDhSKmMpdrwZ-4" value="Generate equal blanks to the letters" style="rounded=1;whiteSpace=wrap;html=1;fontSize=12;glass=0;strokeWidth=1;shadow=0;" parent="WIyWlLk6GJQsqaUBKTNV-1" vertex="1">
          <mxGeometry x="354" y="220" width="120" height="40" as="geometry" />
        </mxCell>
        <mxCell id="fCuV1WT7ZDhSKmMpdrwZ-12" style="edgeStyle=orthogonalEdgeStyle;rounded=0;orthogonalLoop=1;jettySize=auto;html=1;" parent="WIyWlLk6GJQsqaUBKTNV-1" target="fCuV1WT7ZDhSKmMpdrwZ-28" edge="1">
          <mxGeometry relative="1" as="geometry">
            <mxPoint x="366" y="480" as="targetPoint" />
            <mxPoint x="456" y="410" as="sourcePoint" />
            <Array as="points">
              <mxPoint x="232" y="410" />
            </Array>
          </mxGeometry>
        </mxCell>
        <mxCell id="fCuV1WT7ZDhSKmMpdrwZ-8" value="Did player guess right?" style="rhombus;whiteSpace=wrap;html=1;rounded=1;glass=0;strokeWidth=1;shadow=0;" parent="WIyWlLk6GJQsqaUBKTNV-1" vertex="1">
          <mxGeometry x="354" y="350" width="120" height="120" as="geometry" />
        </mxCell>
        <mxCell id="fCuV1WT7ZDhSKmMpdrwZ-14" value="No" style="text;html=1;align=center;verticalAlign=middle;resizable=0;points=[];autosize=1;strokeColor=none;fillColor=none;" parent="WIyWlLk6GJQsqaUBKTNV-1" vertex="1">
          <mxGeometry x="294" y="380" width="40" height="30" as="geometry" />
        </mxCell>
        <mxCell id="fCuV1WT7ZDhSKmMpdrwZ-15" value="Yes" style="text;html=1;align=center;verticalAlign=middle;resizable=0;points=[];autosize=1;strokeColor=none;fillColor=none;" parent="WIyWlLk6GJQsqaUBKTNV-1" vertex="1">
          <mxGeometry x="489" y="380" width="40" height="30" as="geometry" />
        </mxCell>
        <mxCell id="fCuV1WT7ZDhSKmMpdrwZ-16" style="edgeStyle=orthogonalEdgeStyle;rounded=0;orthogonalLoop=1;jettySize=auto;html=1;exitX=1;exitY=0.5;exitDx=0;exitDy=0;entryX=0.5;entryY=0;entryDx=0;entryDy=0;" parent="WIyWlLk6GJQsqaUBKTNV-1" source="fCuV1WT7ZDhSKmMpdrwZ-8" target="fCuV1WT7ZDhSKmMpdrwZ-25" edge="1">
          <mxGeometry relative="1" as="geometry">
            <mxPoint x="554" y="510" as="targetPoint" />
            <mxPoint x="634" y="420" as="sourcePoint" />
          </mxGeometry>
        </mxCell>
        <mxCell id="fCuV1WT7ZDhSKmMpdrwZ-49" value="" style="edgeStyle=orthogonalEdgeStyle;rounded=0;orthogonalLoop=1;jettySize=auto;html=1;" parent="WIyWlLk6GJQsqaUBKTNV-1" source="fCuV1WT7ZDhSKmMpdrwZ-25" target="fCuV1WT7ZDhSKmMpdrwZ-48" edge="1">
          <mxGeometry relative="1" as="geometry" />
        </mxCell>
        <mxCell id="fCuV1WT7ZDhSKmMpdrwZ-25" value="replace the blank/s&lt;div&gt;with the letter&lt;/div&gt;" style="rounded=1;whiteSpace=wrap;html=1;" parent="WIyWlLk6GJQsqaUBKTNV-1" vertex="1">
          <mxGeometry x="519" y="470" width="120" height="60" as="geometry" />
        </mxCell>
        <mxCell id="fCuV1WT7ZDhSKmMpdrwZ-51" style="edgeStyle=orthogonalEdgeStyle;rounded=0;orthogonalLoop=1;jettySize=auto;html=1;" parent="WIyWlLk6GJQsqaUBKTNV-1" source="fCuV1WT7ZDhSKmMpdrwZ-28" target="fCuV1WT7ZDhSKmMpdrwZ-50" edge="1">
          <mxGeometry relative="1" as="geometry" />
        </mxCell>
        <mxCell id="fCuV1WT7ZDhSKmMpdrwZ-28" value="draw part of the hangman" style="rounded=1;whiteSpace=wrap;html=1;" parent="WIyWlLk6GJQsqaUBKTNV-1" vertex="1">
          <mxGeometry x="172" y="470" width="120" height="60" as="geometry" />
        </mxCell>
        <mxCell id="fCuV1WT7ZDhSKmMpdrwZ-32" value="No" style="text;html=1;align=center;verticalAlign=middle;resizable=0;points=[];autosize=1;strokeColor=none;fillColor=none;" parent="WIyWlLk6GJQsqaUBKTNV-1" vertex="1">
          <mxGeometry x="489" y="570" width="40" height="30" as="geometry" />
        </mxCell>
        <mxCell id="fCuV1WT7ZDhSKmMpdrwZ-33" value="Yes" style="text;html=1;align=center;verticalAlign=middle;resizable=0;points=[];autosize=1;strokeColor=none;fillColor=none;" parent="WIyWlLk6GJQsqaUBKTNV-1" vertex="1">
          <mxGeometry x="262" y="700" width="40" height="30" as="geometry" />
        </mxCell>
        <mxCell id="fCuV1WT7ZDhSKmMpdrwZ-36" value="Display Win/Lose&lt;div&gt;Message&lt;/div&gt;" style="rounded=1;whiteSpace=wrap;html=1;" parent="WIyWlLk6GJQsqaUBKTNV-1" vertex="1">
          <mxGeometry x="354" y="660" width="120" height="60" as="geometry" />
        </mxCell>
        <mxCell id="fCuV1WT7ZDhSKmMpdrwZ-39" style="edgeStyle=orthogonalEdgeStyle;rounded=0;orthogonalLoop=1;jettySize=auto;html=1;" parent="WIyWlLk6GJQsqaUBKTNV-1" source="fCuV1WT7ZDhSKmMpdrwZ-37" target="fCuV1WT7ZDhSKmMpdrwZ-8" edge="1">
          <mxGeometry relative="1" as="geometry" />
        </mxCell>
        <mxCell id="fCuV1WT7ZDhSKmMpdrwZ-37" value="ask user to guess a letter" style="rounded=1;whiteSpace=wrap;html=1;fontSize=12;glass=0;strokeWidth=1;shadow=0;" parent="WIyWlLk6GJQsqaUBKTNV-1" vertex="1">
          <mxGeometry x="354" y="290" width="120" height="40" as="geometry" />
        </mxCell>
        <mxCell id="fCuV1WT7ZDhSKmMpdrwZ-54" style="edgeStyle=orthogonalEdgeStyle;rounded=0;orthogonalLoop=1;jettySize=auto;html=1;exitX=0.5;exitY=1;exitDx=0;exitDy=0;" parent="WIyWlLk6GJQsqaUBKTNV-1" source="fCuV1WT7ZDhSKmMpdrwZ-48" target="fCuV1WT7ZDhSKmMpdrwZ-36" edge="1">
          <mxGeometry relative="1" as="geometry" />
        </mxCell>
        <mxCell id="fCuV1WT7ZDhSKmMpdrwZ-56" style="edgeStyle=orthogonalEdgeStyle;rounded=0;orthogonalLoop=1;jettySize=auto;html=1;entryX=0.5;entryY=1;entryDx=0;entryDy=0;" parent="WIyWlLk6GJQsqaUBKTNV-1" source="fCuV1WT7ZDhSKmMpdrwZ-48" target="fCuV1WT7ZDhSKmMpdrwZ-8" edge="1">
          <mxGeometry relative="1" as="geometry" />
        </mxCell>
        <mxCell id="fCuV1WT7ZDhSKmMpdrwZ-48" value="are all the blanks filled ?" style="rhombus;whiteSpace=wrap;html=1;rounded=1;" parent="WIyWlLk6GJQsqaUBKTNV-1" vertex="1">
          <mxGeometry x="534" y="550" width="90" height="120" as="geometry" />
        </mxCell>
        <mxCell id="fCuV1WT7ZDhSKmMpdrwZ-55" style="edgeStyle=orthogonalEdgeStyle;rounded=0;orthogonalLoop=1;jettySize=auto;html=1;entryX=0;entryY=0.5;entryDx=0;entryDy=0;exitX=0.5;exitY=1;exitDx=0;exitDy=0;" parent="WIyWlLk6GJQsqaUBKTNV-1" source="fCuV1WT7ZDhSKmMpdrwZ-50" target="fCuV1WT7ZDhSKmMpdrwZ-36" edge="1">
          <mxGeometry relative="1" as="geometry" />
        </mxCell>
        <mxCell id="fCuV1WT7ZDhSKmMpdrwZ-57" style="edgeStyle=orthogonalEdgeStyle;rounded=0;orthogonalLoop=1;jettySize=auto;html=1;" parent="WIyWlLk6GJQsqaUBKTNV-1" source="fCuV1WT7ZDhSKmMpdrwZ-50" target="fCuV1WT7ZDhSKmMpdrwZ-8" edge="1">
          <mxGeometry relative="1" as="geometry" />
        </mxCell>
        <mxCell id="fCuV1WT7ZDhSKmMpdrwZ-50" value="is the hangman&lt;div&gt;fully drawn ?&lt;/div&gt;" style="rhombus;whiteSpace=wrap;html=1;rounded=1;" parent="WIyWlLk6GJQsqaUBKTNV-1" vertex="1">
          <mxGeometry x="187" y="550" width="90" height="120" as="geometry" />
        </mxCell>
        <mxCell id="fCuV1WT7ZDhSKmMpdrwZ-58" value="No" style="text;html=1;align=center;verticalAlign=middle;resizable=0;points=[];autosize=1;strokeColor=none;fillColor=none;" parent="WIyWlLk6GJQsqaUBKTNV-1" vertex="1">
          <mxGeometry x="302" y="570" width="40" height="30" as="geometry" />
        </mxCell>
        <mxCell id="fCuV1WT7ZDhSKmMpdrwZ-59" value="Yes" style="text;html=1;align=center;verticalAlign=middle;resizable=0;points=[];autosize=1;strokeColor=none;fillColor=none;" parent="WIyWlLk6GJQsqaUBKTNV-1" vertex="1">
          <mxGeometry x="500" y="700" width="40" height="30" as="geometry" />
        </mxCell>
      </root>
    </mxGraphModel>
  </diagram>
</mxfile>
